<svg width="183" height="42" viewBox="0 0 183 42" fill="none" xmlns="http://www.w3.org/2000/svg">
<path d="M147.616 0.865234H110.713C107.102 0.865234 103.972 3.4021 103.171 6.98044L96.4746 41.197H169.794C173.46 41.197 176.622 38.5818 177.368 34.9367L182.236 11.1233L147.616 0.865234Z" fill="#7A191A"/>
<path d="M169.792 41.197H96.4746L103.171 6.98044C103.972 3.40441 107.102 0.865234 110.713 0.865234H147.616C147.616 0.865234 158.1 7.87215 160.056 16.0818C160.056 16.0818 169.932 7.47814 182.234 11.1233L177.366 34.9367C176.622 38.5841 173.458 41.197 169.792 41.197Z" fill="#C93533"/>
<path d="M5.5205 30.6114C4.57685 30.6114 3.68082 30.4501 2.83017 30.1275C1.97952 29.8049 1.28312 29.3464 0.740967 28.7496L2.10882 27.0999C3.26797 28.1851 4.51333 28.7266 5.84489 28.7266C6.63202 28.7266 7.26718 28.5469 7.74581 28.1851C8.22445 27.8234 8.4649 27.3441 8.4649 26.7473C8.4649 26.3234 8.26755 26.0008 7.87284 25.7819C7.47814 25.563 6.8634 25.3349 6.02863 25.0999C5.44111 24.9271 4.93072 24.7565 4.49745 24.593C4.06419 24.4271 3.70805 24.2404 3.42903 24.0284C3.15002 23.8165 2.94359 23.5768 2.80295 23.3095C2.66458 23.0423 2.59426 22.7266 2.59426 22.3671C2.59426 21.6759 2.7417 21.0515 3.03433 20.4939C3.32922 19.9386 3.72166 19.4616 4.21844 19.0676C4.71295 18.6759 5.28686 18.3741 5.93562 18.1598C6.58666 17.9478 7.27398 17.8418 8.00214 17.8418C8.86641 17.8418 9.63993 17.9824 10.3205 18.2658C11.001 18.5492 11.5885 18.957 12.083 19.4916L10.6675 21.0446C10.2206 20.5907 9.73294 20.2496 9.20667 20.0192C8.6804 19.7911 8.13144 19.6782 7.5598 19.6782C6.87928 19.6782 6.29857 19.8441 5.81993 20.1713C5.3413 20.5008 5.10085 21.0054 5.10085 21.6782C5.10085 22.0722 5.2619 22.3648 5.58629 22.563C5.91067 22.7612 6.45282 22.9593 7.21047 23.1644C7.85923 23.3372 8.42407 23.5169 8.9027 23.7082C9.38134 23.8971 9.78057 24.1045 10.0982 24.3326C10.4157 24.5607 10.6516 24.8234 10.8059 25.1206C10.9601 25.4201 11.0373 25.7658 11.0373 26.1575C11.0373 26.8165 10.9012 27.4178 10.6312 27.9593C10.3613 28.5008 9.98246 28.9685 9.49476 29.3602C9.00932 29.7542 8.42407 30.0607 7.74354 30.2796C7.06529 30.5008 6.32352 30.6114 5.5205 30.6114Z" fill="#919090"/>
<path d="M16.3975 30.5665C15.7329 30.5665 15.1749 30.4052 14.728 30.0826C14.2788 29.7623 14.0543 29.2462 14.0543 28.5388C14.0543 28.2715 14.086 28.0112 14.1473 27.7623L15.7692 20.0573H14.2153L14.6554 18.0549H16.1616L17.0191 14.002H19.571L18.7136 18.0549H21.2179L20.8005 20.0573H18.3234L16.8852 26.9374C16.8535 27.0964 16.8376 27.2139 16.8376 27.2923C16.8376 27.6056 16.9306 27.8337 17.1166 27.9743C17.3026 28.1172 17.5249 28.1863 17.7903 28.1863C18.1465 28.1863 18.4867 28.1241 18.8111 27.9973C19.1355 27.8706 19.3828 27.7692 19.5529 27.6909L19.6459 29.7416C19.2897 29.9628 18.8179 30.154 18.2304 30.3176C17.6406 30.4835 17.0304 30.5665 16.3975 30.5665Z" fill="#919090"/>
<path d="M24.3778 18.0537H26.9297L24.3324 30.3762H21.7805L24.3778 18.0537ZM25.3736 13.1758H27.9256L27.3449 16.0283H24.7929L25.3736 13.1758Z" fill="#919090"/>
<path d="M30.5933 30.5652C29.881 30.5652 29.3366 30.3924 28.9577 30.0467C28.5789 29.7011 28.3906 29.208 28.3906 28.5629C28.3906 28.4361 28.3974 28.3071 28.4133 28.1735C28.4269 28.0398 28.4519 27.9039 28.4836 27.761L31.5233 13.1758H34.0503L31.2193 26.8186C31.174 26.9915 31.149 27.1481 31.149 27.291C31.149 27.6044 31.2375 27.8486 31.4144 28.0214C31.5936 28.1942 31.8363 28.2818 32.1471 28.2818C32.3172 28.2818 32.5169 28.2495 32.7505 28.1873C32.9819 28.1251 33.2065 28.0537 33.4242 27.9753L33.3312 30.0007C32.9297 30.1735 32.4738 30.3117 31.9634 30.4131C31.453 30.5122 30.997 30.5652 30.5933 30.5652Z" fill="#919090"/>
<path d="M37.902 18.0537H40.454L37.8566 30.3762H35.3047L37.902 18.0537ZM38.8978 13.1758H41.4498L40.8691 16.0283H38.3171L38.8978 13.1758Z" fill="#919090"/>
<path d="M44.0245 18.0541H46.3201L45.8097 20.5265C46.4131 19.6947 47.1775 19.038 48.1076 18.5587C49.0354 18.0795 50.0085 17.8398 51.0293 17.8398C51.5397 17.8398 51.9639 17.9113 52.3041 18.0518C52.6444 18.1924 52.9189 18.3928 53.1276 18.6532C53.3363 18.9113 53.4883 19.2154 53.5813 19.561C53.6743 19.9067 53.7196 20.2915 53.7196 20.7154C53.7196 21.0449 53.6924 21.3905 53.638 21.7523C53.5858 22.114 53.5177 22.4827 53.4406 22.8606L51.8868 30.3767H49.3348L50.773 23.4735C50.8365 23.1762 50.8819 22.9044 50.9136 22.6624C50.9454 22.4182 50.9612 22.1878 50.9612 21.9666C50.9612 20.7569 50.4645 20.1532 49.4777 20.1532C49.1374 20.1532 48.7813 20.2246 48.4093 20.3652C48.0373 20.5057 47.6743 20.7062 47.3182 20.9666C46.962 21.2246 46.6263 21.5311 46.3087 21.8836C45.9912 22.2385 45.7326 22.6279 45.5329 23.0495L43.9791 30.3767H41.4271L44.0245 18.0541Z" fill="#919090"/>
<path d="M59.1026 35.6305C57.8187 35.6305 56.8024 35.4001 56.0516 34.9347C55.303 34.4715 54.7177 33.8241 54.3004 32.99L56.0175 31.6236C56.326 32.2826 56.7865 32.7849 57.399 33.1305C58.0092 33.4761 58.7101 33.6489 59.4973 33.6489C59.9941 33.6489 60.475 33.5775 60.9468 33.437C61.4186 33.2964 61.8564 33.0752 62.2579 32.778C62.6594 32.4784 63.0042 32.1006 63.2901 31.6466C63.5759 31.1904 63.78 30.6489 63.9048 30.0199L64.2745 28.1351C63.7347 28.8886 63.0609 29.4715 62.2579 29.8794C61.4526 30.2872 60.6564 30.4923 59.8693 30.4923C59.2205 30.4923 58.6398 30.3586 58.1294 30.0913C57.619 29.8241 57.1903 29.4623 56.8432 29.0061C56.4962 28.5522 56.2285 28.0245 56.0448 27.4278C55.8588 26.831 55.7657 26.195 55.7657 25.5199C55.7657 24.5153 55.9518 23.5499 56.3238 22.6213C56.6935 21.695 57.1926 20.8771 57.8187 20.1697C58.4447 19.4623 59.1729 18.8978 60.0009 18.4738C60.8266 18.0499 61.7044 17.8379 62.6345 17.8379C63.5623 17.8379 64.3154 18.0729 64.8961 18.5453C65.4768 19.0153 65.9191 19.6305 66.2299 20.384L66.7153 18.0522H68.9656L66.4613 30.0222C66.2753 30.9162 65.9509 31.7112 65.4881 32.4024C65.0254 33.0936 64.4674 33.6789 63.8163 34.1582C63.1676 34.6374 62.4394 35.0038 61.6364 35.2526C60.8243 35.5061 59.9827 35.6305 59.1026 35.6305ZM61.1419 28.3978C61.498 28.3978 61.8542 28.331 62.2103 28.1973C62.5664 28.0637 62.9067 27.884 63.2311 27.6536C63.5555 27.4254 63.8503 27.1674 64.1135 26.8771C64.3766 26.5867 64.5853 26.2757 64.7396 25.9462L65.436 22.7181C65.3112 21.9324 64.9959 21.2918 64.4855 20.7987C63.9751 20.3033 63.3876 20.0545 62.723 20.0545C62.1354 20.0545 61.5774 20.2066 61.0534 20.5153C60.5271 20.8218 60.0666 21.2135 59.6719 21.6927C59.2772 22.172 58.9687 22.7158 58.7442 23.3195C58.5196 23.9255 58.4062 24.5176 58.4062 25.0983C58.4062 25.5522 58.472 25.9807 58.6035 26.3817C58.7351 26.7826 58.9211 27.1328 59.1616 27.4301C59.402 27.7296 59.6856 27.9646 60.019 28.1374C60.3502 28.3102 60.7245 28.3978 61.1419 28.3978Z" fill="#919090"/>
<path d="M75.1289 30.6117C74.3554 30.6117 73.6749 30.4735 73.0873 30.1993C72.4998 29.9251 72.0053 29.5564 71.6038 29.091C71.2023 28.6279 70.8961 28.0864 70.6874 27.4643C70.4787 26.8444 70.3743 26.1809 70.3743 25.4735C70.3743 24.485 70.5671 23.5288 70.955 22.6117C71.3407 21.6924 71.8669 20.8813 72.5339 20.1716C73.1985 19.4643 73.9834 18.8997 74.8885 18.4758C75.7936 18.0518 76.7644 17.8398 77.7988 17.8398C78.5724 17.8398 79.2574 17.9781 79.8517 18.2523C80.4483 18.5265 80.9497 18.8974 81.358 19.3606C81.7685 19.8237 82.0771 20.3698 82.2857 20.9988C82.4944 21.6279 82.5988 22.2938 82.5988 23.0011C82.5988 23.9758 82.406 24.9182 82.0181 25.8283C81.6302 26.7385 81.1016 27.5495 80.4279 28.2546C79.7542 28.962 78.9671 29.5311 78.062 29.962C77.1614 30.3951 76.1815 30.6117 75.1289 30.6117ZM75.6166 28.3974C76.1565 28.3974 76.6873 28.2638 77.2045 27.9965C77.724 27.7292 78.1822 27.3652 78.586 26.8997C78.9875 26.4366 79.3141 25.8974 79.5591 25.2868C79.8064 24.6739 79.9311 24.0219 79.9311 23.3306C79.9311 22.3882 79.6952 21.6071 79.2234 20.9873C78.7516 20.3675 78.1209 20.0564 77.3315 20.0564C76.7917 20.0564 76.2631 20.1947 75.7527 20.4689C75.2423 20.7431 74.7818 21.114 74.3735 21.5772C73.963 22.0403 73.634 22.5795 73.3868 23.1924C73.1395 23.8053 73.0148 24.4574 73.0148 25.1463C73.0148 26.0887 73.2507 26.8675 73.7225 27.4804C74.1989 28.091 74.8295 28.3974 75.6166 28.3974Z" fill="#919090"/>
<path d="M88.2153 30.6114C87.2717 30.6114 86.3756 30.4501 85.525 30.1275C84.6743 29.8049 83.9779 29.3464 83.4358 28.7496L84.8036 27.0999C85.9628 28.1851 87.2082 28.7266 88.5397 28.7266C89.3268 28.7266 89.962 28.5469 90.4406 28.1851C90.9193 27.8234 91.1597 27.3441 91.1597 26.7473C91.1597 26.3234 90.9624 26.0008 90.5677 25.7819C90.173 25.563 89.5582 25.3349 88.7235 25.0999C88.1359 24.9271 87.6255 24.7565 87.1923 24.593C86.759 24.4271 86.4029 24.2404 86.1238 24.0284C85.8448 23.8165 85.6384 23.5768 85.4978 23.3095C85.3594 23.0423 85.2891 22.7266 85.2891 22.3671C85.2891 21.6759 85.4365 21.0515 85.7291 20.4939C86.024 19.9386 86.4165 19.4616 86.9133 19.0676C87.4078 18.6759 87.9817 18.3741 88.6304 18.1598C89.2815 17.9478 89.9688 17.8418 90.697 17.8418C91.5612 17.8418 92.3348 17.9824 93.0153 18.2658C93.6958 18.5492 94.2833 18.957 94.7778 19.4916L93.3623 21.0446C92.9155 20.5907 92.4278 20.2496 91.9015 20.0192C91.3752 19.7911 90.8263 19.6782 90.2546 19.6782C89.5741 19.6782 88.9934 19.8441 88.5148 20.1713C88.0361 20.5008 87.7957 21.0054 87.7957 21.6782C87.7957 22.0722 87.9567 22.3648 88.2811 22.563C88.6055 22.7589 89.1476 22.9593 89.9053 23.1644C90.5541 23.3372 91.1189 23.5169 91.5975 23.7082C92.0762 23.8971 92.4754 24.1045 92.793 24.3326C93.1106 24.5607 93.3465 24.8234 93.5007 25.1206C93.655 25.4201 93.7321 25.7658 93.7321 26.1575C93.7321 26.8165 93.596 27.4178 93.326 27.9593C93.0561 28.5008 92.6773 28.9685 92.1896 29.3602C91.7041 29.7542 91.1189 30.0607 90.4384 30.2796C89.7601 30.5008 89.0183 30.6114 88.2153 30.6114Z" fill="#919090"/>
<path d="M108.817 30.5882C107.937 30.5882 107.272 30.3901 106.823 29.9984C106.376 29.6067 106.149 29.0329 106.149 28.2795C106.149 28.1228 106.161 27.9661 106.186 27.8094C106.208 27.6527 106.236 27.4799 106.267 27.291L109.212 13.1758H112.925L110.232 25.9707C110.219 26.0491 110.205 26.132 110.198 26.2173C110.189 26.3048 110.187 26.3855 110.187 26.4638C110.187 27.0767 110.482 27.3832 111.07 27.3832C111.24 27.3832 111.437 27.3555 111.662 27.3002C111.886 27.2472 112.099 27.1643 112.299 27.0514L112.183 29.8786C111.687 30.0998 111.131 30.2726 110.512 30.397C109.892 30.5237 109.327 30.5882 108.817 30.5882Z" fill="white"/>
<path d="M118.421 30.6118C117.478 30.6118 116.766 30.3607 116.287 29.8584C115.808 29.3561 115.568 28.6165 115.568 27.6441C115.568 27.1395 115.638 26.5681 115.777 25.9229L117.448 18.0059H121.134L119.651 25.098C119.574 25.4897 119.535 25.7962 119.535 26.0174C119.535 26.9598 119.921 27.4298 120.697 27.4298C121.114 27.4298 121.559 27.2962 122.031 27.0289C122.502 26.7616 122.976 26.2985 123.457 25.6395L125.059 18.0059H128.772L127.078 26.1349C127.03 26.3538 127.007 26.5197 127.007 26.628C127.007 26.9897 127.207 27.1764 127.611 27.1948L126.937 30.3745C126.597 30.4529 126.3 30.5036 126.043 30.5266C125.789 30.5519 125.56 30.5612 125.361 30.5612C124.773 30.5612 124.292 30.4436 123.922 30.2086C123.553 29.9736 123.367 29.5888 123.367 29.0542C123.367 28.9598 123.378 28.8538 123.401 28.7363C123.423 28.6188 123.451 28.4506 123.482 28.2294C122.786 29.045 122.012 29.6464 121.162 30.0312C120.307 30.4206 119.395 30.6118 118.421 30.6118Z" fill="white"/>
<path d="M137.789 30.6116C136.907 30.6116 136.179 30.4111 135.607 30.0102C135.035 29.6093 134.641 29.0471 134.423 28.3259L134.005 30.3743H130.757L134.353 13.1738H138.064L136.625 20.031C137.12 19.3397 137.732 18.789 138.458 18.3812C139.186 17.9734 139.951 17.7683 140.756 17.7683C141.389 17.7683 141.954 17.8973 142.451 18.1577C142.945 18.4158 143.358 18.7706 143.692 19.2176C144.023 19.6646 144.275 20.1923 144.445 20.7983C144.615 21.4042 144.699 22.0586 144.699 22.766C144.699 23.8512 144.506 24.8674 144.118 25.819C143.73 26.7706 143.222 27.6024 142.587 28.3167C141.952 29.031 141.219 29.5932 140.382 30.001C139.554 30.4065 138.685 30.6116 137.789 30.6116ZM137.465 27.4319C137.898 27.4319 138.315 27.3259 138.717 27.1139C139.118 26.9019 139.475 26.6185 139.785 26.266C140.094 25.9135 140.341 25.501 140.527 25.0287C140.713 24.5586 140.806 24.0563 140.806 23.5218C140.806 22.8144 140.641 22.2153 140.307 21.7199C139.976 21.2245 139.513 20.9757 138.928 20.9757C138.402 20.9757 137.871 21.1807 137.338 21.5886C136.805 21.9964 136.36 22.5079 136.004 23.1185L135.446 25.7107C135.6 26.2453 135.845 26.6646 136.179 26.9711C136.51 27.2775 136.938 27.4319 137.465 27.4319Z" fill="white"/>
<path d="M152.402 30.6125C151.552 30.6125 150.81 30.4742 150.175 30.2001C149.54 29.9259 149.016 29.5526 148.598 29.0825C148.181 28.6102 147.865 28.0641 147.657 27.4443C147.448 26.8222 147.344 26.1609 147.344 25.4535C147.344 24.4789 147.53 23.5319 147.902 22.6148C148.274 21.6955 148.798 20.8752 149.481 20.1517C150.163 19.4282 150.978 18.8521 151.928 18.4189C152.879 17.9881 153.933 17.7715 155.095 17.7715C155.93 17.7715 156.665 17.9074 157.3 18.1839C157.933 18.4604 158.463 18.8314 158.888 19.3037C159.312 19.7738 159.629 20.3222 159.838 20.942C160.047 21.5641 160.151 22.2254 160.151 22.9328C160.151 23.9074 159.965 24.8544 159.593 25.7715C159.221 26.6908 158.697 27.5065 158.014 28.2208C157.334 28.9351 156.517 29.5134 155.567 29.9535C154.618 30.3913 153.564 30.6125 152.402 30.6125ZM153.076 27.4328C153.493 27.4328 153.895 27.3314 154.283 27.1263C154.668 26.9213 155.011 26.6355 155.304 26.2646C155.598 25.8959 155.834 25.4673 156.011 24.9812C156.19 24.495 156.279 23.9673 156.279 23.4005C156.279 22.6632 156.113 22.0733 155.78 21.6332C155.449 21.1931 154.995 20.9719 154.423 20.9719C154.006 20.9719 153.604 21.0756 153.217 21.2784C152.829 21.4812 152.488 21.7692 152.196 22.1378C151.901 22.5065 151.665 22.9351 151.488 23.4213C151.309 23.9074 151.223 24.4328 151.223 24.9996C151.223 25.7392 151.388 26.3268 151.722 26.7669C152.051 27.2116 152.504 27.4328 153.076 27.4328Z" fill="white"/>
<path d="M166.877 30.6125C165.904 30.6125 164.971 30.4443 164.082 30.1056C163.193 29.7669 162.478 29.2761 161.936 28.6332L163.724 26.3245C164.311 26.8429 164.915 27.2438 165.534 27.5272C166.153 27.8107 166.764 27.9512 167.367 27.9512C167.861 27.9512 168.233 27.8452 168.481 27.6332C168.728 27.4213 168.853 27.1355 168.853 26.7738C168.853 26.5065 168.726 26.283 168.469 26.101C168.213 25.9213 167.771 25.7277 167.136 25.5249C166.5 25.3199 165.956 25.1194 165.5 24.9236C165.044 24.7277 164.668 24.5157 164.375 24.2876C164.082 24.0595 163.864 23.8084 163.726 23.5342C163.585 23.26 163.517 22.942 163.517 22.5802C163.517 21.889 163.667 21.2484 163.971 20.6586C164.273 20.0687 164.679 19.5641 165.189 19.1378C165.697 18.7139 166.294 18.3821 166.974 18.1378C167.655 17.8936 168.381 17.7715 169.154 17.7715C170.021 17.7715 170.806 17.8982 171.509 18.1471C172.212 18.3982 172.859 18.8544 173.446 19.5134L171.543 21.7761C170.971 21.2899 170.452 20.9351 169.989 20.7162C169.526 20.495 169.061 20.3867 168.596 20.3867C168.179 20.3867 167.832 20.4904 167.553 20.6931C167.274 20.8982 167.136 21.2047 167.136 21.6125C167.136 21.8798 167.267 22.0964 167.53 22.26C167.793 22.4259 168.227 22.5941 168.83 22.7669C170.159 23.1586 171.119 23.5849 171.706 24.0388C172.294 24.495 172.589 25.1148 172.589 25.9005C172.589 26.5918 172.448 27.2277 172.171 27.8107C171.892 28.3913 171.502 28.8913 171.001 29.306C170.5 29.7231 169.898 30.0457 169.204 30.2715C168.51 30.4973 167.728 30.6125 166.877 30.6125Z" fill="white"/>
</svg>
