<svg width="20" height="21" viewBox="0 0 20 21" fill="none" xmlns="http://www.w3.org/2000/svg">
<path d="M11.639 12.8273C9.9645 12.0653 7.8228 10.1014 7.14003 8.31034C7.05811 8.09545 7.07884 7.85822 7.17089 7.64747L7.86245 6.06426C7.99796 5.76426 7.9789 5.41665 7.81142 5.13342L5.66749 1.50777C5.38977 1.03812 4.79009 0.876444 4.31567 1.14332L1.51706 2.65046C1.19318 2.82488 0.98782 3.16322 1.00624 3.53062C1.38665 11.1186 8.92616 18.635 16.4535 19.0016C16.8074 19.0189 17.1354 18.8281 17.3151 18.5226L18.8527 15.9087C19.1306 15.4363 18.981 14.8273 18.5163 14.539L14.7811 12.2218C14.5008 12.048 14.1534 12.0235 13.8517 12.1564L12.3784 12.815C12.1427 12.9204 11.874 12.9342 11.639 12.8273Z" fill="white" stroke="#2764BF" stroke-width="2" stroke-linecap="round"/>
</svg>
